<mxfile host="Electron" modified="2025-01-24T09:57:24.519Z" agent="Mozilla/5.0 (X11; Linux x86_64) AppleWebKit/537.36 (KHTML, like Gecko) draw.io/24.2.5 Chrome/120.0.6099.109 Electron/28.1.0 Safari/537.36" etag="PCG8h-AXbtAkCFuJ-Xsa" version="24.2.5" type="device">
  <diagram name="Page-1" id="Ymbx4eR_bdlQ2o2hsO71">
    <mxGraphModel dx="1727" dy="579" grid="1" gridSize="10" guides="1" tooltips="1" connect="1" arrows="1" fold="1" page="1" pageScale="1" pageWidth="850" pageHeight="1100" math="0" shadow="0">
      <root>
        <mxCell id="0" />
        <mxCell id="1" parent="0" />
        <mxCell id="PjvlIqHdNigLgI37IArB-245" value="" style="rounded=0;whiteSpace=wrap;html=1;fillColor=#fad7ac;strokeColor=#b46504;" vertex="1" parent="1">
          <mxGeometry x="-30" y="370" width="710" height="450" as="geometry" />
        </mxCell>
        <mxCell id="PjvlIqHdNigLgI37IArB-236" value="" style="rounded=0;whiteSpace=wrap;html=1;fillColor=#dae8fc;strokeColor=#6c8ebf;" vertex="1" parent="1">
          <mxGeometry x="-10" y="390" width="545" height="420" as="geometry" />
        </mxCell>
        <mxCell id="PjvlIqHdNigLgI37IArB-234" value="" style="rounded=0;whiteSpace=wrap;html=1;fillColor=#fff2cc;strokeColor=#d6b656;" vertex="1" parent="1">
          <mxGeometry x="110" y="410" width="400" height="390" as="geometry" />
        </mxCell>
        <mxCell id="PjvlIqHdNigLgI37IArB-102" value="" style="rounded=0;whiteSpace=wrap;html=1;fillColor=#f5f5f5;fontColor=#333333;strokeColor=#666666;" vertex="1" parent="1">
          <mxGeometry x="148" y="438" width="292" height="302" as="geometry" />
        </mxCell>
        <mxCell id="PjvlIqHdNigLgI37IArB-5" value="" style="rounded=0;whiteSpace=wrap;html=1;fillColor=#ffe6cc;strokeColor=#d79b00;" vertex="1" parent="1">
          <mxGeometry x="180" y="460" width="190" height="140" as="geometry" />
        </mxCell>
        <mxCell id="PjvlIqHdNigLgI37IArB-1" value="Driver" style="rounded=0;whiteSpace=wrap;html=1;fillColor=#d5e8d4;strokeColor=#82b366;" vertex="1" parent="1">
          <mxGeometry x="290" y="480" width="70" height="50" as="geometry" />
        </mxCell>
        <mxCell id="PjvlIqHdNigLgI37IArB-73" style="edgeStyle=orthogonalEdgeStyle;rounded=0;orthogonalLoop=1;jettySize=auto;html=1;exitX=0;exitY=0.5;exitDx=0;exitDy=0;entryX=1;entryY=0.5;entryDx=0;entryDy=0;" edge="1" parent="1" source="PjvlIqHdNigLgI37IArB-2" target="PjvlIqHdNigLgI37IArB-72">
          <mxGeometry relative="1" as="geometry" />
        </mxCell>
        <mxCell id="PjvlIqHdNigLgI37IArB-74" style="edgeStyle=orthogonalEdgeStyle;rounded=0;orthogonalLoop=1;jettySize=auto;html=1;exitX=0;exitY=0.5;exitDx=0;exitDy=0;entryX=0.5;entryY=1;entryDx=0;entryDy=0;" edge="1" parent="1" source="PjvlIqHdNigLgI37IArB-2" target="PjvlIqHdNigLgI37IArB-5">
          <mxGeometry relative="1" as="geometry" />
        </mxCell>
        <mxCell id="PjvlIqHdNigLgI37IArB-2" value="Monitor" style="rounded=0;whiteSpace=wrap;html=1;fillColor=#e1d5e7;strokeColor=#9673a6;" vertex="1" parent="1">
          <mxGeometry x="290" y="540" width="70" height="50" as="geometry" />
        </mxCell>
        <mxCell id="PjvlIqHdNigLgI37IArB-71" style="edgeStyle=orthogonalEdgeStyle;rounded=0;orthogonalLoop=1;jettySize=auto;html=1;exitX=1;exitY=0.5;exitDx=0;exitDy=0;entryX=0;entryY=0.5;entryDx=0;entryDy=0;" edge="1" parent="1" source="PjvlIqHdNigLgI37IArB-3" target="PjvlIqHdNigLgI37IArB-1">
          <mxGeometry relative="1" as="geometry" />
        </mxCell>
        <mxCell id="PjvlIqHdNigLgI37IArB-3" value="Sequencer" style="rounded=0;whiteSpace=wrap;html=1;fillColor=#dae8fc;strokeColor=#6c8ebf;" vertex="1" parent="1">
          <mxGeometry x="190" y="480" width="70" height="50" as="geometry" />
        </mxCell>
        <mxCell id="PjvlIqHdNigLgI37IArB-6" value="Agent" style="text;html=1;align=center;verticalAlign=middle;resizable=0;points=[];autosize=1;strokeColor=none;fillColor=none;" vertex="1" parent="1">
          <mxGeometry x="174" y="453" width="50" height="30" as="geometry" />
        </mxCell>
        <mxCell id="PjvlIqHdNigLgI37IArB-7" value="interface" style="rounded=0;whiteSpace=wrap;html=1;fillColor=#b0e3e6;strokeColor=#0e8088;" vertex="1" parent="1">
          <mxGeometry x="550" y="577" width="58" height="36" as="geometry" />
        </mxCell>
        <mxCell id="PjvlIqHdNigLgI37IArB-72" value="Coverage" style="rounded=0;whiteSpace=wrap;html=1;fillColor=#f8cecc;strokeColor=#b85450;" vertex="1" parent="1">
          <mxGeometry x="190" y="540" width="70" height="50" as="geometry" />
        </mxCell>
        <mxCell id="PjvlIqHdNigLgI37IArB-75" value="" style="rounded=0;whiteSpace=wrap;html=1;fillColor=#ffe6cc;strokeColor=#d79b00;" vertex="1" parent="1">
          <mxGeometry x="190" y="470" width="190" height="140" as="geometry" />
        </mxCell>
        <mxCell id="PjvlIqHdNigLgI37IArB-76" value="Driver" style="rounded=0;whiteSpace=wrap;html=1;fillColor=#d5e8d4;strokeColor=#82b366;" vertex="1" parent="1">
          <mxGeometry x="300" y="490" width="70" height="50" as="geometry" />
        </mxCell>
        <mxCell id="PjvlIqHdNigLgI37IArB-77" style="edgeStyle=orthogonalEdgeStyle;rounded=0;orthogonalLoop=1;jettySize=auto;html=1;exitX=0;exitY=0.5;exitDx=0;exitDy=0;entryX=1;entryY=0.5;entryDx=0;entryDy=0;" edge="1" parent="1" source="PjvlIqHdNigLgI37IArB-79" target="PjvlIqHdNigLgI37IArB-83">
          <mxGeometry relative="1" as="geometry" />
        </mxCell>
        <mxCell id="PjvlIqHdNigLgI37IArB-78" style="edgeStyle=orthogonalEdgeStyle;rounded=0;orthogonalLoop=1;jettySize=auto;html=1;exitX=0;exitY=0.5;exitDx=0;exitDy=0;entryX=0.5;entryY=1;entryDx=0;entryDy=0;" edge="1" parent="1" source="PjvlIqHdNigLgI37IArB-79" target="PjvlIqHdNigLgI37IArB-75">
          <mxGeometry relative="1" as="geometry" />
        </mxCell>
        <mxCell id="PjvlIqHdNigLgI37IArB-79" value="Monitor" style="rounded=0;whiteSpace=wrap;html=1;fillColor=#e1d5e7;strokeColor=#9673a6;" vertex="1" parent="1">
          <mxGeometry x="300" y="550" width="70" height="50" as="geometry" />
        </mxCell>
        <mxCell id="PjvlIqHdNigLgI37IArB-80" style="edgeStyle=orthogonalEdgeStyle;rounded=0;orthogonalLoop=1;jettySize=auto;html=1;exitX=1;exitY=0.5;exitDx=0;exitDy=0;entryX=0;entryY=0.5;entryDx=0;entryDy=0;" edge="1" parent="1" source="PjvlIqHdNigLgI37IArB-81" target="PjvlIqHdNigLgI37IArB-76">
          <mxGeometry relative="1" as="geometry" />
        </mxCell>
        <mxCell id="PjvlIqHdNigLgI37IArB-81" value="Sequencer" style="rounded=0;whiteSpace=wrap;html=1;fillColor=#dae8fc;strokeColor=#6c8ebf;" vertex="1" parent="1">
          <mxGeometry x="200" y="490" width="70" height="50" as="geometry" />
        </mxCell>
        <mxCell id="PjvlIqHdNigLgI37IArB-82" value="Agent" style="text;html=1;align=center;verticalAlign=middle;resizable=0;points=[];autosize=1;strokeColor=none;fillColor=none;" vertex="1" parent="1">
          <mxGeometry x="184" y="463" width="50" height="30" as="geometry" />
        </mxCell>
        <mxCell id="PjvlIqHdNigLgI37IArB-83" value="Coverage" style="rounded=0;whiteSpace=wrap;html=1;fillColor=#f8cecc;strokeColor=#b85450;" vertex="1" parent="1">
          <mxGeometry x="200" y="550" width="70" height="50" as="geometry" />
        </mxCell>
        <mxCell id="PjvlIqHdNigLgI37IArB-84" value="" style="rounded=0;whiteSpace=wrap;html=1;fillColor=#ffe6cc;strokeColor=#d79b00;" vertex="1" parent="1">
          <mxGeometry x="200" y="480" width="190" height="140" as="geometry" />
        </mxCell>
        <mxCell id="PjvlIqHdNigLgI37IArB-85" value="Driver" style="rounded=0;whiteSpace=wrap;html=1;fillColor=#d5e8d4;strokeColor=#82b366;" vertex="1" parent="1">
          <mxGeometry x="310" y="500" width="70" height="50" as="geometry" />
        </mxCell>
        <mxCell id="PjvlIqHdNigLgI37IArB-86" style="edgeStyle=orthogonalEdgeStyle;rounded=0;orthogonalLoop=1;jettySize=auto;html=1;exitX=0;exitY=0.5;exitDx=0;exitDy=0;entryX=1;entryY=0.5;entryDx=0;entryDy=0;" edge="1" parent="1" source="PjvlIqHdNigLgI37IArB-88" target="PjvlIqHdNigLgI37IArB-92">
          <mxGeometry relative="1" as="geometry" />
        </mxCell>
        <mxCell id="PjvlIqHdNigLgI37IArB-87" style="edgeStyle=orthogonalEdgeStyle;rounded=0;orthogonalLoop=1;jettySize=auto;html=1;exitX=0;exitY=0.5;exitDx=0;exitDy=0;entryX=0.5;entryY=1;entryDx=0;entryDy=0;" edge="1" parent="1" source="PjvlIqHdNigLgI37IArB-88" target="PjvlIqHdNigLgI37IArB-84">
          <mxGeometry relative="1" as="geometry" />
        </mxCell>
        <mxCell id="PjvlIqHdNigLgI37IArB-88" value="Monitor" style="rounded=0;whiteSpace=wrap;html=1;fillColor=#e1d5e7;strokeColor=#9673a6;" vertex="1" parent="1">
          <mxGeometry x="310" y="560" width="70" height="50" as="geometry" />
        </mxCell>
        <mxCell id="PjvlIqHdNigLgI37IArB-89" style="edgeStyle=orthogonalEdgeStyle;rounded=0;orthogonalLoop=1;jettySize=auto;html=1;exitX=1;exitY=0.5;exitDx=0;exitDy=0;entryX=0;entryY=0.5;entryDx=0;entryDy=0;" edge="1" parent="1" source="PjvlIqHdNigLgI37IArB-90" target="PjvlIqHdNigLgI37IArB-85">
          <mxGeometry relative="1" as="geometry" />
        </mxCell>
        <mxCell id="PjvlIqHdNigLgI37IArB-90" value="Sequencer" style="rounded=0;whiteSpace=wrap;html=1;fillColor=#dae8fc;strokeColor=#6c8ebf;" vertex="1" parent="1">
          <mxGeometry x="210" y="500" width="70" height="50" as="geometry" />
        </mxCell>
        <mxCell id="PjvlIqHdNigLgI37IArB-91" value="Agent" style="text;html=1;align=center;verticalAlign=middle;resizable=0;points=[];autosize=1;strokeColor=none;fillColor=none;" vertex="1" parent="1">
          <mxGeometry x="194" y="473" width="50" height="30" as="geometry" />
        </mxCell>
        <mxCell id="PjvlIqHdNigLgI37IArB-92" value="Coverage" style="rounded=0;whiteSpace=wrap;html=1;fillColor=#f8cecc;strokeColor=#b85450;" vertex="1" parent="1">
          <mxGeometry x="210" y="560" width="70" height="50" as="geometry" />
        </mxCell>
        <mxCell id="PjvlIqHdNigLgI37IArB-106" style="edgeStyle=orthogonalEdgeStyle;rounded=0;orthogonalLoop=1;jettySize=auto;html=1;exitX=0.5;exitY=1;exitDx=0;exitDy=0;entryX=0.5;entryY=0;entryDx=0;entryDy=0;" edge="1" parent="1" source="PjvlIqHdNigLgI37IArB-93" target="PjvlIqHdNigLgI37IArB-105">
          <mxGeometry relative="1" as="geometry" />
        </mxCell>
        <mxCell id="PjvlIqHdNigLgI37IArB-107" style="edgeStyle=orthogonalEdgeStyle;rounded=0;orthogonalLoop=1;jettySize=auto;html=1;exitX=0.5;exitY=1;exitDx=0;exitDy=0;entryX=0.5;entryY=0;entryDx=0;entryDy=0;" edge="1" parent="1" source="PjvlIqHdNigLgI37IArB-93" target="PjvlIqHdNigLgI37IArB-104">
          <mxGeometry relative="1" as="geometry" />
        </mxCell>
        <mxCell id="PjvlIqHdNigLgI37IArB-93" value="" style="rounded=0;whiteSpace=wrap;html=1;fillColor=#ffe6cc;strokeColor=#d79b00;" vertex="1" parent="1">
          <mxGeometry x="210" y="490" width="190" height="140" as="geometry" />
        </mxCell>
        <mxCell id="PjvlIqHdNigLgI37IArB-94" value="Driver" style="rounded=0;whiteSpace=wrap;html=1;fillColor=#d5e8d4;strokeColor=#82b366;" vertex="1" parent="1">
          <mxGeometry x="320" y="510" width="70" height="50" as="geometry" />
        </mxCell>
        <mxCell id="PjvlIqHdNigLgI37IArB-95" style="edgeStyle=orthogonalEdgeStyle;rounded=0;orthogonalLoop=1;jettySize=auto;html=1;exitX=0;exitY=0.5;exitDx=0;exitDy=0;entryX=1;entryY=0.5;entryDx=0;entryDy=0;" edge="1" parent="1" source="PjvlIqHdNigLgI37IArB-97" target="PjvlIqHdNigLgI37IArB-101">
          <mxGeometry relative="1" as="geometry" />
        </mxCell>
        <mxCell id="PjvlIqHdNigLgI37IArB-96" style="edgeStyle=orthogonalEdgeStyle;rounded=0;orthogonalLoop=1;jettySize=auto;html=1;exitX=0;exitY=0.5;exitDx=0;exitDy=0;entryX=0.5;entryY=1;entryDx=0;entryDy=0;" edge="1" parent="1" source="PjvlIqHdNigLgI37IArB-97" target="PjvlIqHdNigLgI37IArB-93">
          <mxGeometry relative="1" as="geometry" />
        </mxCell>
        <mxCell id="PjvlIqHdNigLgI37IArB-97" value="Monitor" style="rounded=0;whiteSpace=wrap;html=1;fillColor=#e1d5e7;strokeColor=#9673a6;" vertex="1" parent="1">
          <mxGeometry x="320" y="570" width="70" height="50" as="geometry" />
        </mxCell>
        <mxCell id="PjvlIqHdNigLgI37IArB-98" style="edgeStyle=orthogonalEdgeStyle;rounded=0;orthogonalLoop=1;jettySize=auto;html=1;exitX=1;exitY=0.5;exitDx=0;exitDy=0;entryX=0;entryY=0.5;entryDx=0;entryDy=0;" edge="1" parent="1" source="PjvlIqHdNigLgI37IArB-99" target="PjvlIqHdNigLgI37IArB-94">
          <mxGeometry relative="1" as="geometry" />
        </mxCell>
        <mxCell id="PjvlIqHdNigLgI37IArB-99" value="Sequencer" style="rounded=0;whiteSpace=wrap;html=1;fillColor=#dae8fc;strokeColor=#6c8ebf;" vertex="1" parent="1">
          <mxGeometry x="220" y="510" width="70" height="50" as="geometry" />
        </mxCell>
        <mxCell id="PjvlIqHdNigLgI37IArB-100" value="Agent" style="text;html=1;align=center;verticalAlign=middle;resizable=0;points=[];autosize=1;strokeColor=none;fillColor=none;" vertex="1" parent="1">
          <mxGeometry x="204" y="483" width="50" height="30" as="geometry" />
        </mxCell>
        <mxCell id="PjvlIqHdNigLgI37IArB-101" value="Coverage" style="rounded=0;whiteSpace=wrap;html=1;fillColor=#f8cecc;strokeColor=#b85450;" vertex="1" parent="1">
          <mxGeometry x="220" y="570" width="70" height="50" as="geometry" />
        </mxCell>
        <mxCell id="PjvlIqHdNigLgI37IArB-103" value="Environment" style="text;html=1;align=center;verticalAlign=middle;resizable=0;points=[];autosize=1;strokeColor=none;fillColor=none;" vertex="1" parent="1">
          <mxGeometry x="142" y="435" width="90" height="30" as="geometry" />
        </mxCell>
        <mxCell id="PjvlIqHdNigLgI37IArB-104" value="Coverage" style="rounded=0;whiteSpace=wrap;html=1;fillColor=#f8cecc;strokeColor=#b85450;" vertex="1" parent="1">
          <mxGeometry x="210" y="670" width="70" height="50" as="geometry" />
        </mxCell>
        <mxCell id="PjvlIqHdNigLgI37IArB-105" value="Scoreboard" style="rounded=0;whiteSpace=wrap;html=1;fillColor=#f8cecc;strokeColor=#b85450;" vertex="1" parent="1">
          <mxGeometry x="330" y="670" width="70" height="50" as="geometry" />
        </mxCell>
        <mxCell id="PjvlIqHdNigLgI37IArB-108" value="" style="rounded=0;whiteSpace=wrap;html=1;fillColor=#f5f5f5;fontColor=#333333;strokeColor=#666666;" vertex="1" parent="1">
          <mxGeometry x="158" y="448" width="292" height="302" as="geometry" />
        </mxCell>
        <mxCell id="PjvlIqHdNigLgI37IArB-109" value="" style="rounded=0;whiteSpace=wrap;html=1;fillColor=#ffe6cc;strokeColor=#d79b00;" vertex="1" parent="1">
          <mxGeometry x="190" y="470" width="190" height="140" as="geometry" />
        </mxCell>
        <mxCell id="PjvlIqHdNigLgI37IArB-110" value="Driver" style="rounded=0;whiteSpace=wrap;html=1;fillColor=#d5e8d4;strokeColor=#82b366;" vertex="1" parent="1">
          <mxGeometry x="300" y="490" width="70" height="50" as="geometry" />
        </mxCell>
        <mxCell id="PjvlIqHdNigLgI37IArB-111" style="edgeStyle=orthogonalEdgeStyle;rounded=0;orthogonalLoop=1;jettySize=auto;html=1;exitX=0;exitY=0.5;exitDx=0;exitDy=0;entryX=1;entryY=0.5;entryDx=0;entryDy=0;" edge="1" parent="1" source="PjvlIqHdNigLgI37IArB-113" target="PjvlIqHdNigLgI37IArB-117">
          <mxGeometry relative="1" as="geometry" />
        </mxCell>
        <mxCell id="PjvlIqHdNigLgI37IArB-112" style="edgeStyle=orthogonalEdgeStyle;rounded=0;orthogonalLoop=1;jettySize=auto;html=1;exitX=0;exitY=0.5;exitDx=0;exitDy=0;entryX=0.5;entryY=1;entryDx=0;entryDy=0;" edge="1" parent="1" source="PjvlIqHdNigLgI37IArB-113" target="PjvlIqHdNigLgI37IArB-109">
          <mxGeometry relative="1" as="geometry" />
        </mxCell>
        <mxCell id="PjvlIqHdNigLgI37IArB-113" value="Monitor" style="rounded=0;whiteSpace=wrap;html=1;fillColor=#e1d5e7;strokeColor=#9673a6;" vertex="1" parent="1">
          <mxGeometry x="300" y="550" width="70" height="50" as="geometry" />
        </mxCell>
        <mxCell id="PjvlIqHdNigLgI37IArB-114" style="edgeStyle=orthogonalEdgeStyle;rounded=0;orthogonalLoop=1;jettySize=auto;html=1;exitX=1;exitY=0.5;exitDx=0;exitDy=0;entryX=0;entryY=0.5;entryDx=0;entryDy=0;" edge="1" parent="1" source="PjvlIqHdNigLgI37IArB-115" target="PjvlIqHdNigLgI37IArB-110">
          <mxGeometry relative="1" as="geometry" />
        </mxCell>
        <mxCell id="PjvlIqHdNigLgI37IArB-115" value="Sequencer" style="rounded=0;whiteSpace=wrap;html=1;fillColor=#dae8fc;strokeColor=#6c8ebf;" vertex="1" parent="1">
          <mxGeometry x="200" y="490" width="70" height="50" as="geometry" />
        </mxCell>
        <mxCell id="PjvlIqHdNigLgI37IArB-116" value="Agent" style="text;html=1;align=center;verticalAlign=middle;resizable=0;points=[];autosize=1;strokeColor=none;fillColor=none;" vertex="1" parent="1">
          <mxGeometry x="184" y="463" width="50" height="30" as="geometry" />
        </mxCell>
        <mxCell id="PjvlIqHdNigLgI37IArB-117" value="Coverage" style="rounded=0;whiteSpace=wrap;html=1;fillColor=#f8cecc;strokeColor=#b85450;" vertex="1" parent="1">
          <mxGeometry x="200" y="550" width="70" height="50" as="geometry" />
        </mxCell>
        <mxCell id="PjvlIqHdNigLgI37IArB-118" value="" style="rounded=0;whiteSpace=wrap;html=1;fillColor=#ffe6cc;strokeColor=#d79b00;" vertex="1" parent="1">
          <mxGeometry x="200" y="480" width="190" height="140" as="geometry" />
        </mxCell>
        <mxCell id="PjvlIqHdNigLgI37IArB-119" value="Driver" style="rounded=0;whiteSpace=wrap;html=1;fillColor=#d5e8d4;strokeColor=#82b366;" vertex="1" parent="1">
          <mxGeometry x="310" y="500" width="70" height="50" as="geometry" />
        </mxCell>
        <mxCell id="PjvlIqHdNigLgI37IArB-120" style="edgeStyle=orthogonalEdgeStyle;rounded=0;orthogonalLoop=1;jettySize=auto;html=1;exitX=0;exitY=0.5;exitDx=0;exitDy=0;entryX=1;entryY=0.5;entryDx=0;entryDy=0;" edge="1" parent="1" source="PjvlIqHdNigLgI37IArB-122" target="PjvlIqHdNigLgI37IArB-126">
          <mxGeometry relative="1" as="geometry" />
        </mxCell>
        <mxCell id="PjvlIqHdNigLgI37IArB-121" style="edgeStyle=orthogonalEdgeStyle;rounded=0;orthogonalLoop=1;jettySize=auto;html=1;exitX=0;exitY=0.5;exitDx=0;exitDy=0;entryX=0.5;entryY=1;entryDx=0;entryDy=0;" edge="1" parent="1" source="PjvlIqHdNigLgI37IArB-122" target="PjvlIqHdNigLgI37IArB-118">
          <mxGeometry relative="1" as="geometry" />
        </mxCell>
        <mxCell id="PjvlIqHdNigLgI37IArB-122" value="Monitor" style="rounded=0;whiteSpace=wrap;html=1;fillColor=#e1d5e7;strokeColor=#9673a6;" vertex="1" parent="1">
          <mxGeometry x="310" y="560" width="70" height="50" as="geometry" />
        </mxCell>
        <mxCell id="PjvlIqHdNigLgI37IArB-123" style="edgeStyle=orthogonalEdgeStyle;rounded=0;orthogonalLoop=1;jettySize=auto;html=1;exitX=1;exitY=0.5;exitDx=0;exitDy=0;entryX=0;entryY=0.5;entryDx=0;entryDy=0;" edge="1" parent="1" source="PjvlIqHdNigLgI37IArB-124" target="PjvlIqHdNigLgI37IArB-119">
          <mxGeometry relative="1" as="geometry" />
        </mxCell>
        <mxCell id="PjvlIqHdNigLgI37IArB-124" value="Sequencer" style="rounded=0;whiteSpace=wrap;html=1;fillColor=#dae8fc;strokeColor=#6c8ebf;" vertex="1" parent="1">
          <mxGeometry x="210" y="500" width="70" height="50" as="geometry" />
        </mxCell>
        <mxCell id="PjvlIqHdNigLgI37IArB-125" value="Agent" style="text;html=1;align=center;verticalAlign=middle;resizable=0;points=[];autosize=1;strokeColor=none;fillColor=none;" vertex="1" parent="1">
          <mxGeometry x="194" y="473" width="50" height="30" as="geometry" />
        </mxCell>
        <mxCell id="PjvlIqHdNigLgI37IArB-126" value="Coverage" style="rounded=0;whiteSpace=wrap;html=1;fillColor=#f8cecc;strokeColor=#b85450;" vertex="1" parent="1">
          <mxGeometry x="210" y="560" width="70" height="50" as="geometry" />
        </mxCell>
        <mxCell id="PjvlIqHdNigLgI37IArB-127" value="" style="rounded=0;whiteSpace=wrap;html=1;fillColor=#ffe6cc;strokeColor=#d79b00;" vertex="1" parent="1">
          <mxGeometry x="210" y="490" width="190" height="140" as="geometry" />
        </mxCell>
        <mxCell id="PjvlIqHdNigLgI37IArB-128" value="Driver" style="rounded=0;whiteSpace=wrap;html=1;fillColor=#d5e8d4;strokeColor=#82b366;" vertex="1" parent="1">
          <mxGeometry x="320" y="510" width="70" height="50" as="geometry" />
        </mxCell>
        <mxCell id="PjvlIqHdNigLgI37IArB-129" style="edgeStyle=orthogonalEdgeStyle;rounded=0;orthogonalLoop=1;jettySize=auto;html=1;exitX=0;exitY=0.5;exitDx=0;exitDy=0;entryX=1;entryY=0.5;entryDx=0;entryDy=0;" edge="1" parent="1" source="PjvlIqHdNigLgI37IArB-131" target="PjvlIqHdNigLgI37IArB-135">
          <mxGeometry relative="1" as="geometry" />
        </mxCell>
        <mxCell id="PjvlIqHdNigLgI37IArB-130" style="edgeStyle=orthogonalEdgeStyle;rounded=0;orthogonalLoop=1;jettySize=auto;html=1;exitX=0;exitY=0.5;exitDx=0;exitDy=0;entryX=0.5;entryY=1;entryDx=0;entryDy=0;" edge="1" parent="1" source="PjvlIqHdNigLgI37IArB-131" target="PjvlIqHdNigLgI37IArB-127">
          <mxGeometry relative="1" as="geometry" />
        </mxCell>
        <mxCell id="PjvlIqHdNigLgI37IArB-131" value="Monitor" style="rounded=0;whiteSpace=wrap;html=1;fillColor=#e1d5e7;strokeColor=#9673a6;" vertex="1" parent="1">
          <mxGeometry x="320" y="570" width="70" height="50" as="geometry" />
        </mxCell>
        <mxCell id="PjvlIqHdNigLgI37IArB-132" style="edgeStyle=orthogonalEdgeStyle;rounded=0;orthogonalLoop=1;jettySize=auto;html=1;exitX=1;exitY=0.5;exitDx=0;exitDy=0;entryX=0;entryY=0.5;entryDx=0;entryDy=0;" edge="1" parent="1" source="PjvlIqHdNigLgI37IArB-133" target="PjvlIqHdNigLgI37IArB-128">
          <mxGeometry relative="1" as="geometry" />
        </mxCell>
        <mxCell id="PjvlIqHdNigLgI37IArB-133" value="Sequencer" style="rounded=0;whiteSpace=wrap;html=1;fillColor=#dae8fc;strokeColor=#6c8ebf;" vertex="1" parent="1">
          <mxGeometry x="220" y="510" width="70" height="50" as="geometry" />
        </mxCell>
        <mxCell id="PjvlIqHdNigLgI37IArB-134" value="Agent" style="text;html=1;align=center;verticalAlign=middle;resizable=0;points=[];autosize=1;strokeColor=none;fillColor=none;" vertex="1" parent="1">
          <mxGeometry x="204" y="483" width="50" height="30" as="geometry" />
        </mxCell>
        <mxCell id="PjvlIqHdNigLgI37IArB-135" value="Coverage" style="rounded=0;whiteSpace=wrap;html=1;fillColor=#f8cecc;strokeColor=#b85450;" vertex="1" parent="1">
          <mxGeometry x="220" y="570" width="70" height="50" as="geometry" />
        </mxCell>
        <mxCell id="PjvlIqHdNigLgI37IArB-136" style="edgeStyle=orthogonalEdgeStyle;rounded=0;orthogonalLoop=1;jettySize=auto;html=1;exitX=0.5;exitY=1;exitDx=0;exitDy=0;entryX=0.5;entryY=0;entryDx=0;entryDy=0;" edge="1" parent="1" source="PjvlIqHdNigLgI37IArB-138" target="PjvlIqHdNigLgI37IArB-149">
          <mxGeometry relative="1" as="geometry" />
        </mxCell>
        <mxCell id="PjvlIqHdNigLgI37IArB-137" style="edgeStyle=orthogonalEdgeStyle;rounded=0;orthogonalLoop=1;jettySize=auto;html=1;exitX=0.5;exitY=1;exitDx=0;exitDy=0;entryX=0.5;entryY=0;entryDx=0;entryDy=0;" edge="1" parent="1" source="PjvlIqHdNigLgI37IArB-138" target="PjvlIqHdNigLgI37IArB-148">
          <mxGeometry relative="1" as="geometry" />
        </mxCell>
        <mxCell id="PjvlIqHdNigLgI37IArB-138" value="" style="rounded=0;whiteSpace=wrap;html=1;fillColor=#ffe6cc;strokeColor=#d79b00;" vertex="1" parent="1">
          <mxGeometry x="220" y="500" width="190" height="140" as="geometry" />
        </mxCell>
        <mxCell id="PjvlIqHdNigLgI37IArB-139" value="Driver" style="rounded=0;whiteSpace=wrap;html=1;fillColor=#d5e8d4;strokeColor=#82b366;" vertex="1" parent="1">
          <mxGeometry x="330" y="520" width="70" height="50" as="geometry" />
        </mxCell>
        <mxCell id="PjvlIqHdNigLgI37IArB-140" style="edgeStyle=orthogonalEdgeStyle;rounded=0;orthogonalLoop=1;jettySize=auto;html=1;exitX=0;exitY=0.5;exitDx=0;exitDy=0;entryX=1;entryY=0.5;entryDx=0;entryDy=0;" edge="1" parent="1" source="PjvlIqHdNigLgI37IArB-142" target="PjvlIqHdNigLgI37IArB-146">
          <mxGeometry relative="1" as="geometry" />
        </mxCell>
        <mxCell id="PjvlIqHdNigLgI37IArB-141" style="edgeStyle=orthogonalEdgeStyle;rounded=0;orthogonalLoop=1;jettySize=auto;html=1;exitX=0;exitY=0.5;exitDx=0;exitDy=0;entryX=0.5;entryY=1;entryDx=0;entryDy=0;" edge="1" parent="1" source="PjvlIqHdNigLgI37IArB-142" target="PjvlIqHdNigLgI37IArB-138">
          <mxGeometry relative="1" as="geometry" />
        </mxCell>
        <mxCell id="PjvlIqHdNigLgI37IArB-142" value="Monitor" style="rounded=0;whiteSpace=wrap;html=1;fillColor=#e1d5e7;strokeColor=#9673a6;" vertex="1" parent="1">
          <mxGeometry x="330" y="580" width="70" height="50" as="geometry" />
        </mxCell>
        <mxCell id="PjvlIqHdNigLgI37IArB-143" style="edgeStyle=orthogonalEdgeStyle;rounded=0;orthogonalLoop=1;jettySize=auto;html=1;exitX=1;exitY=0.5;exitDx=0;exitDy=0;entryX=0;entryY=0.5;entryDx=0;entryDy=0;" edge="1" parent="1" source="PjvlIqHdNigLgI37IArB-144" target="PjvlIqHdNigLgI37IArB-139">
          <mxGeometry relative="1" as="geometry" />
        </mxCell>
        <mxCell id="PjvlIqHdNigLgI37IArB-144" value="Sequencer" style="rounded=0;whiteSpace=wrap;html=1;fillColor=#dae8fc;strokeColor=#6c8ebf;" vertex="1" parent="1">
          <mxGeometry x="230" y="520" width="70" height="50" as="geometry" />
        </mxCell>
        <mxCell id="PjvlIqHdNigLgI37IArB-145" value="Agent" style="text;html=1;align=center;verticalAlign=middle;resizable=0;points=[];autosize=1;strokeColor=none;fillColor=none;" vertex="1" parent="1">
          <mxGeometry x="214" y="493" width="50" height="30" as="geometry" />
        </mxCell>
        <mxCell id="PjvlIqHdNigLgI37IArB-146" value="Coverage" style="rounded=0;whiteSpace=wrap;html=1;fillColor=#f8cecc;strokeColor=#b85450;" vertex="1" parent="1">
          <mxGeometry x="230" y="580" width="70" height="50" as="geometry" />
        </mxCell>
        <mxCell id="PjvlIqHdNigLgI37IArB-147" value="Environment" style="text;html=1;align=center;verticalAlign=middle;resizable=0;points=[];autosize=1;strokeColor=none;fillColor=none;" vertex="1" parent="1">
          <mxGeometry x="152" y="445" width="90" height="30" as="geometry" />
        </mxCell>
        <mxCell id="PjvlIqHdNigLgI37IArB-148" value="Coverage" style="rounded=0;whiteSpace=wrap;html=1;fillColor=#f8cecc;strokeColor=#b85450;" vertex="1" parent="1">
          <mxGeometry x="220" y="680" width="70" height="50" as="geometry" />
        </mxCell>
        <mxCell id="PjvlIqHdNigLgI37IArB-149" value="Scoreboard" style="rounded=0;whiteSpace=wrap;html=1;fillColor=#f8cecc;strokeColor=#b85450;" vertex="1" parent="1">
          <mxGeometry x="340" y="680" width="70" height="50" as="geometry" />
        </mxCell>
        <mxCell id="PjvlIqHdNigLgI37IArB-150" value="" style="rounded=0;whiteSpace=wrap;html=1;fillColor=#f5f5f5;fontColor=#333333;strokeColor=#666666;" vertex="1" parent="1">
          <mxGeometry x="168" y="458" width="292" height="302" as="geometry" />
        </mxCell>
        <mxCell id="PjvlIqHdNigLgI37IArB-151" value="" style="rounded=0;whiteSpace=wrap;html=1;fillColor=#ffe6cc;strokeColor=#d79b00;" vertex="1" parent="1">
          <mxGeometry x="200" y="480" width="190" height="140" as="geometry" />
        </mxCell>
        <mxCell id="PjvlIqHdNigLgI37IArB-152" value="Driver" style="rounded=0;whiteSpace=wrap;html=1;fillColor=#d5e8d4;strokeColor=#82b366;" vertex="1" parent="1">
          <mxGeometry x="310" y="500" width="70" height="50" as="geometry" />
        </mxCell>
        <mxCell id="PjvlIqHdNigLgI37IArB-153" style="edgeStyle=orthogonalEdgeStyle;rounded=0;orthogonalLoop=1;jettySize=auto;html=1;exitX=0;exitY=0.5;exitDx=0;exitDy=0;entryX=1;entryY=0.5;entryDx=0;entryDy=0;" edge="1" parent="1" source="PjvlIqHdNigLgI37IArB-155" target="PjvlIqHdNigLgI37IArB-159">
          <mxGeometry relative="1" as="geometry" />
        </mxCell>
        <mxCell id="PjvlIqHdNigLgI37IArB-154" style="edgeStyle=orthogonalEdgeStyle;rounded=0;orthogonalLoop=1;jettySize=auto;html=1;exitX=0;exitY=0.5;exitDx=0;exitDy=0;entryX=0.5;entryY=1;entryDx=0;entryDy=0;" edge="1" parent="1" source="PjvlIqHdNigLgI37IArB-155" target="PjvlIqHdNigLgI37IArB-151">
          <mxGeometry relative="1" as="geometry" />
        </mxCell>
        <mxCell id="PjvlIqHdNigLgI37IArB-155" value="Monitor" style="rounded=0;whiteSpace=wrap;html=1;fillColor=#e1d5e7;strokeColor=#9673a6;" vertex="1" parent="1">
          <mxGeometry x="310" y="560" width="70" height="50" as="geometry" />
        </mxCell>
        <mxCell id="PjvlIqHdNigLgI37IArB-156" style="edgeStyle=orthogonalEdgeStyle;rounded=0;orthogonalLoop=1;jettySize=auto;html=1;exitX=1;exitY=0.5;exitDx=0;exitDy=0;entryX=0;entryY=0.5;entryDx=0;entryDy=0;" edge="1" parent="1" source="PjvlIqHdNigLgI37IArB-157" target="PjvlIqHdNigLgI37IArB-152">
          <mxGeometry relative="1" as="geometry" />
        </mxCell>
        <mxCell id="PjvlIqHdNigLgI37IArB-157" value="Sequencer" style="rounded=0;whiteSpace=wrap;html=1;fillColor=#dae8fc;strokeColor=#6c8ebf;" vertex="1" parent="1">
          <mxGeometry x="210" y="500" width="70" height="50" as="geometry" />
        </mxCell>
        <mxCell id="PjvlIqHdNigLgI37IArB-158" value="Agent" style="text;html=1;align=center;verticalAlign=middle;resizable=0;points=[];autosize=1;strokeColor=none;fillColor=none;" vertex="1" parent="1">
          <mxGeometry x="194" y="473" width="50" height="30" as="geometry" />
        </mxCell>
        <mxCell id="PjvlIqHdNigLgI37IArB-159" value="Coverage" style="rounded=0;whiteSpace=wrap;html=1;fillColor=#f8cecc;strokeColor=#b85450;" vertex="1" parent="1">
          <mxGeometry x="210" y="560" width="70" height="50" as="geometry" />
        </mxCell>
        <mxCell id="PjvlIqHdNigLgI37IArB-160" value="" style="rounded=0;whiteSpace=wrap;html=1;fillColor=#ffe6cc;strokeColor=#d79b00;" vertex="1" parent="1">
          <mxGeometry x="210" y="490" width="190" height="140" as="geometry" />
        </mxCell>
        <mxCell id="PjvlIqHdNigLgI37IArB-161" value="Driver" style="rounded=0;whiteSpace=wrap;html=1;fillColor=#d5e8d4;strokeColor=#82b366;" vertex="1" parent="1">
          <mxGeometry x="320" y="510" width="70" height="50" as="geometry" />
        </mxCell>
        <mxCell id="PjvlIqHdNigLgI37IArB-162" style="edgeStyle=orthogonalEdgeStyle;rounded=0;orthogonalLoop=1;jettySize=auto;html=1;exitX=0;exitY=0.5;exitDx=0;exitDy=0;entryX=1;entryY=0.5;entryDx=0;entryDy=0;" edge="1" parent="1" source="PjvlIqHdNigLgI37IArB-164" target="PjvlIqHdNigLgI37IArB-168">
          <mxGeometry relative="1" as="geometry" />
        </mxCell>
        <mxCell id="PjvlIqHdNigLgI37IArB-163" style="edgeStyle=orthogonalEdgeStyle;rounded=0;orthogonalLoop=1;jettySize=auto;html=1;exitX=0;exitY=0.5;exitDx=0;exitDy=0;entryX=0.5;entryY=1;entryDx=0;entryDy=0;" edge="1" parent="1" source="PjvlIqHdNigLgI37IArB-164" target="PjvlIqHdNigLgI37IArB-160">
          <mxGeometry relative="1" as="geometry" />
        </mxCell>
        <mxCell id="PjvlIqHdNigLgI37IArB-164" value="Monitor" style="rounded=0;whiteSpace=wrap;html=1;fillColor=#e1d5e7;strokeColor=#9673a6;" vertex="1" parent="1">
          <mxGeometry x="320" y="570" width="70" height="50" as="geometry" />
        </mxCell>
        <mxCell id="PjvlIqHdNigLgI37IArB-165" style="edgeStyle=orthogonalEdgeStyle;rounded=0;orthogonalLoop=1;jettySize=auto;html=1;exitX=1;exitY=0.5;exitDx=0;exitDy=0;entryX=0;entryY=0.5;entryDx=0;entryDy=0;" edge="1" parent="1" source="PjvlIqHdNigLgI37IArB-166" target="PjvlIqHdNigLgI37IArB-161">
          <mxGeometry relative="1" as="geometry" />
        </mxCell>
        <mxCell id="PjvlIqHdNigLgI37IArB-166" value="Sequencer" style="rounded=0;whiteSpace=wrap;html=1;fillColor=#dae8fc;strokeColor=#6c8ebf;" vertex="1" parent="1">
          <mxGeometry x="220" y="510" width="70" height="50" as="geometry" />
        </mxCell>
        <mxCell id="PjvlIqHdNigLgI37IArB-167" value="Agent" style="text;html=1;align=center;verticalAlign=middle;resizable=0;points=[];autosize=1;strokeColor=none;fillColor=none;" vertex="1" parent="1">
          <mxGeometry x="204" y="483" width="50" height="30" as="geometry" />
        </mxCell>
        <mxCell id="PjvlIqHdNigLgI37IArB-168" value="Coverage" style="rounded=0;whiteSpace=wrap;html=1;fillColor=#f8cecc;strokeColor=#b85450;" vertex="1" parent="1">
          <mxGeometry x="220" y="570" width="70" height="50" as="geometry" />
        </mxCell>
        <mxCell id="PjvlIqHdNigLgI37IArB-169" value="" style="rounded=0;whiteSpace=wrap;html=1;fillColor=#ffe6cc;strokeColor=#d79b00;" vertex="1" parent="1">
          <mxGeometry x="220" y="500" width="190" height="140" as="geometry" />
        </mxCell>
        <mxCell id="PjvlIqHdNigLgI37IArB-170" value="Driver" style="rounded=0;whiteSpace=wrap;html=1;fillColor=#d5e8d4;strokeColor=#82b366;" vertex="1" parent="1">
          <mxGeometry x="330" y="520" width="70" height="50" as="geometry" />
        </mxCell>
        <mxCell id="PjvlIqHdNigLgI37IArB-171" style="edgeStyle=orthogonalEdgeStyle;rounded=0;orthogonalLoop=1;jettySize=auto;html=1;exitX=0;exitY=0.5;exitDx=0;exitDy=0;entryX=1;entryY=0.5;entryDx=0;entryDy=0;" edge="1" parent="1" source="PjvlIqHdNigLgI37IArB-173" target="PjvlIqHdNigLgI37IArB-177">
          <mxGeometry relative="1" as="geometry" />
        </mxCell>
        <mxCell id="PjvlIqHdNigLgI37IArB-172" style="edgeStyle=orthogonalEdgeStyle;rounded=0;orthogonalLoop=1;jettySize=auto;html=1;exitX=0;exitY=0.5;exitDx=0;exitDy=0;entryX=0.5;entryY=1;entryDx=0;entryDy=0;" edge="1" parent="1" source="PjvlIqHdNigLgI37IArB-173" target="PjvlIqHdNigLgI37IArB-169">
          <mxGeometry relative="1" as="geometry" />
        </mxCell>
        <mxCell id="PjvlIqHdNigLgI37IArB-173" value="Monitor" style="rounded=0;whiteSpace=wrap;html=1;fillColor=#e1d5e7;strokeColor=#9673a6;" vertex="1" parent="1">
          <mxGeometry x="330" y="580" width="70" height="50" as="geometry" />
        </mxCell>
        <mxCell id="PjvlIqHdNigLgI37IArB-174" style="edgeStyle=orthogonalEdgeStyle;rounded=0;orthogonalLoop=1;jettySize=auto;html=1;exitX=1;exitY=0.5;exitDx=0;exitDy=0;entryX=0;entryY=0.5;entryDx=0;entryDy=0;" edge="1" parent="1" source="PjvlIqHdNigLgI37IArB-175" target="PjvlIqHdNigLgI37IArB-170">
          <mxGeometry relative="1" as="geometry" />
        </mxCell>
        <mxCell id="PjvlIqHdNigLgI37IArB-175" value="Sequencer" style="rounded=0;whiteSpace=wrap;html=1;fillColor=#dae8fc;strokeColor=#6c8ebf;" vertex="1" parent="1">
          <mxGeometry x="230" y="520" width="70" height="50" as="geometry" />
        </mxCell>
        <mxCell id="PjvlIqHdNigLgI37IArB-176" value="Agent" style="text;html=1;align=center;verticalAlign=middle;resizable=0;points=[];autosize=1;strokeColor=none;fillColor=none;" vertex="1" parent="1">
          <mxGeometry x="214" y="493" width="50" height="30" as="geometry" />
        </mxCell>
        <mxCell id="PjvlIqHdNigLgI37IArB-177" value="Coverage" style="rounded=0;whiteSpace=wrap;html=1;fillColor=#f8cecc;strokeColor=#b85450;" vertex="1" parent="1">
          <mxGeometry x="230" y="580" width="70" height="50" as="geometry" />
        </mxCell>
        <mxCell id="PjvlIqHdNigLgI37IArB-178" style="edgeStyle=orthogonalEdgeStyle;rounded=0;orthogonalLoop=1;jettySize=auto;html=1;exitX=0.5;exitY=1;exitDx=0;exitDy=0;entryX=0.5;entryY=0;entryDx=0;entryDy=0;" edge="1" parent="1" source="PjvlIqHdNigLgI37IArB-180" target="PjvlIqHdNigLgI37IArB-191">
          <mxGeometry relative="1" as="geometry" />
        </mxCell>
        <mxCell id="PjvlIqHdNigLgI37IArB-179" style="edgeStyle=orthogonalEdgeStyle;rounded=0;orthogonalLoop=1;jettySize=auto;html=1;exitX=0.5;exitY=1;exitDx=0;exitDy=0;entryX=0.5;entryY=0;entryDx=0;entryDy=0;" edge="1" parent="1" source="PjvlIqHdNigLgI37IArB-180" target="PjvlIqHdNigLgI37IArB-190">
          <mxGeometry relative="1" as="geometry" />
        </mxCell>
        <mxCell id="PjvlIqHdNigLgI37IArB-180" value="" style="rounded=0;whiteSpace=wrap;html=1;fillColor=#ffe6cc;strokeColor=#d79b00;" vertex="1" parent="1">
          <mxGeometry x="230" y="510" width="190" height="140" as="geometry" />
        </mxCell>
        <mxCell id="PjvlIqHdNigLgI37IArB-181" value="Driver" style="rounded=0;whiteSpace=wrap;html=1;fillColor=#d5e8d4;strokeColor=#82b366;" vertex="1" parent="1">
          <mxGeometry x="340" y="530" width="70" height="50" as="geometry" />
        </mxCell>
        <mxCell id="PjvlIqHdNigLgI37IArB-182" style="edgeStyle=orthogonalEdgeStyle;rounded=0;orthogonalLoop=1;jettySize=auto;html=1;exitX=0;exitY=0.5;exitDx=0;exitDy=0;entryX=1;entryY=0.5;entryDx=0;entryDy=0;" edge="1" parent="1" source="PjvlIqHdNigLgI37IArB-184" target="PjvlIqHdNigLgI37IArB-188">
          <mxGeometry relative="1" as="geometry" />
        </mxCell>
        <mxCell id="PjvlIqHdNigLgI37IArB-183" style="edgeStyle=orthogonalEdgeStyle;rounded=0;orthogonalLoop=1;jettySize=auto;html=1;exitX=0;exitY=0.5;exitDx=0;exitDy=0;entryX=0.5;entryY=1;entryDx=0;entryDy=0;" edge="1" parent="1" source="PjvlIqHdNigLgI37IArB-184" target="PjvlIqHdNigLgI37IArB-180">
          <mxGeometry relative="1" as="geometry" />
        </mxCell>
        <mxCell id="PjvlIqHdNigLgI37IArB-184" value="Monitor" style="rounded=0;whiteSpace=wrap;html=1;fillColor=#e1d5e7;strokeColor=#9673a6;" vertex="1" parent="1">
          <mxGeometry x="340" y="590" width="70" height="50" as="geometry" />
        </mxCell>
        <mxCell id="PjvlIqHdNigLgI37IArB-185" style="edgeStyle=orthogonalEdgeStyle;rounded=0;orthogonalLoop=1;jettySize=auto;html=1;exitX=1;exitY=0.5;exitDx=0;exitDy=0;entryX=0;entryY=0.5;entryDx=0;entryDy=0;" edge="1" parent="1" source="PjvlIqHdNigLgI37IArB-186" target="PjvlIqHdNigLgI37IArB-181">
          <mxGeometry relative="1" as="geometry" />
        </mxCell>
        <mxCell id="PjvlIqHdNigLgI37IArB-186" value="Sequencer" style="rounded=0;whiteSpace=wrap;html=1;fillColor=#dae8fc;strokeColor=#6c8ebf;" vertex="1" parent="1">
          <mxGeometry x="240" y="530" width="70" height="50" as="geometry" />
        </mxCell>
        <mxCell id="PjvlIqHdNigLgI37IArB-187" value="Agent" style="text;html=1;align=center;verticalAlign=middle;resizable=0;points=[];autosize=1;strokeColor=none;fillColor=none;" vertex="1" parent="1">
          <mxGeometry x="224" y="503" width="50" height="30" as="geometry" />
        </mxCell>
        <mxCell id="PjvlIqHdNigLgI37IArB-188" value="Coverage" style="rounded=0;whiteSpace=wrap;html=1;fillColor=#f8cecc;strokeColor=#b85450;" vertex="1" parent="1">
          <mxGeometry x="240" y="590" width="70" height="50" as="geometry" />
        </mxCell>
        <mxCell id="PjvlIqHdNigLgI37IArB-189" value="Environment" style="text;html=1;align=center;verticalAlign=middle;resizable=0;points=[];autosize=1;strokeColor=none;fillColor=none;" vertex="1" parent="1">
          <mxGeometry x="162" y="455" width="90" height="30" as="geometry" />
        </mxCell>
        <mxCell id="PjvlIqHdNigLgI37IArB-190" value="Coverage" style="rounded=0;whiteSpace=wrap;html=1;fillColor=#f8cecc;strokeColor=#b85450;" vertex="1" parent="1">
          <mxGeometry x="230" y="690" width="70" height="50" as="geometry" />
        </mxCell>
        <mxCell id="PjvlIqHdNigLgI37IArB-191" value="Scoreboard" style="rounded=0;whiteSpace=wrap;html=1;fillColor=#f8cecc;strokeColor=#b85450;" vertex="1" parent="1">
          <mxGeometry x="350" y="690" width="70" height="50" as="geometry" />
        </mxCell>
        <mxCell id="PjvlIqHdNigLgI37IArB-192" value="" style="rounded=0;whiteSpace=wrap;html=1;fillColor=#f5f5f5;fontColor=#333333;strokeColor=#666666;" vertex="1" parent="1">
          <mxGeometry x="178" y="468" width="292" height="302" as="geometry" />
        </mxCell>
        <mxCell id="PjvlIqHdNigLgI37IArB-193" value="" style="rounded=0;whiteSpace=wrap;html=1;fillColor=#ffe6cc;strokeColor=#d79b00;" vertex="1" parent="1">
          <mxGeometry x="210" y="490" width="190" height="140" as="geometry" />
        </mxCell>
        <mxCell id="PjvlIqHdNigLgI37IArB-194" value="Driver" style="rounded=0;whiteSpace=wrap;html=1;fillColor=#d5e8d4;strokeColor=#82b366;" vertex="1" parent="1">
          <mxGeometry x="320" y="510" width="70" height="50" as="geometry" />
        </mxCell>
        <mxCell id="PjvlIqHdNigLgI37IArB-195" style="edgeStyle=orthogonalEdgeStyle;rounded=0;orthogonalLoop=1;jettySize=auto;html=1;exitX=0;exitY=0.5;exitDx=0;exitDy=0;entryX=1;entryY=0.5;entryDx=0;entryDy=0;" edge="1" parent="1" source="PjvlIqHdNigLgI37IArB-197" target="PjvlIqHdNigLgI37IArB-201">
          <mxGeometry relative="1" as="geometry" />
        </mxCell>
        <mxCell id="PjvlIqHdNigLgI37IArB-196" style="edgeStyle=orthogonalEdgeStyle;rounded=0;orthogonalLoop=1;jettySize=auto;html=1;exitX=0;exitY=0.5;exitDx=0;exitDy=0;entryX=0.5;entryY=1;entryDx=0;entryDy=0;" edge="1" parent="1" source="PjvlIqHdNigLgI37IArB-197" target="PjvlIqHdNigLgI37IArB-193">
          <mxGeometry relative="1" as="geometry" />
        </mxCell>
        <mxCell id="PjvlIqHdNigLgI37IArB-197" value="Monitor" style="rounded=0;whiteSpace=wrap;html=1;fillColor=#e1d5e7;strokeColor=#9673a6;" vertex="1" parent="1">
          <mxGeometry x="320" y="570" width="70" height="50" as="geometry" />
        </mxCell>
        <mxCell id="PjvlIqHdNigLgI37IArB-198" style="edgeStyle=orthogonalEdgeStyle;rounded=0;orthogonalLoop=1;jettySize=auto;html=1;exitX=1;exitY=0.5;exitDx=0;exitDy=0;entryX=0;entryY=0.5;entryDx=0;entryDy=0;" edge="1" parent="1" source="PjvlIqHdNigLgI37IArB-199" target="PjvlIqHdNigLgI37IArB-194">
          <mxGeometry relative="1" as="geometry" />
        </mxCell>
        <mxCell id="PjvlIqHdNigLgI37IArB-199" value="Sequencer" style="rounded=0;whiteSpace=wrap;html=1;fillColor=#dae8fc;strokeColor=#6c8ebf;" vertex="1" parent="1">
          <mxGeometry x="220" y="510" width="70" height="50" as="geometry" />
        </mxCell>
        <mxCell id="PjvlIqHdNigLgI37IArB-200" value="Agent" style="text;html=1;align=center;verticalAlign=middle;resizable=0;points=[];autosize=1;strokeColor=none;fillColor=none;" vertex="1" parent="1">
          <mxGeometry x="204" y="483" width="50" height="30" as="geometry" />
        </mxCell>
        <mxCell id="PjvlIqHdNigLgI37IArB-201" value="Coverage" style="rounded=0;whiteSpace=wrap;html=1;fillColor=#f8cecc;strokeColor=#b85450;" vertex="1" parent="1">
          <mxGeometry x="220" y="570" width="70" height="50" as="geometry" />
        </mxCell>
        <mxCell id="PjvlIqHdNigLgI37IArB-202" value="" style="rounded=0;whiteSpace=wrap;html=1;fillColor=#ffe6cc;strokeColor=#d79b00;" vertex="1" parent="1">
          <mxGeometry x="220" y="500" width="190" height="140" as="geometry" />
        </mxCell>
        <mxCell id="PjvlIqHdNigLgI37IArB-203" value="Driver" style="rounded=0;whiteSpace=wrap;html=1;fillColor=#d5e8d4;strokeColor=#82b366;" vertex="1" parent="1">
          <mxGeometry x="330" y="520" width="70" height="50" as="geometry" />
        </mxCell>
        <mxCell id="PjvlIqHdNigLgI37IArB-204" style="edgeStyle=orthogonalEdgeStyle;rounded=0;orthogonalLoop=1;jettySize=auto;html=1;exitX=0;exitY=0.5;exitDx=0;exitDy=0;entryX=1;entryY=0.5;entryDx=0;entryDy=0;" edge="1" parent="1" source="PjvlIqHdNigLgI37IArB-206" target="PjvlIqHdNigLgI37IArB-210">
          <mxGeometry relative="1" as="geometry" />
        </mxCell>
        <mxCell id="PjvlIqHdNigLgI37IArB-205" style="edgeStyle=orthogonalEdgeStyle;rounded=0;orthogonalLoop=1;jettySize=auto;html=1;exitX=0;exitY=0.5;exitDx=0;exitDy=0;entryX=0.5;entryY=1;entryDx=0;entryDy=0;" edge="1" parent="1" source="PjvlIqHdNigLgI37IArB-206" target="PjvlIqHdNigLgI37IArB-202">
          <mxGeometry relative="1" as="geometry" />
        </mxCell>
        <mxCell id="PjvlIqHdNigLgI37IArB-206" value="Monitor" style="rounded=0;whiteSpace=wrap;html=1;fillColor=#e1d5e7;strokeColor=#9673a6;" vertex="1" parent="1">
          <mxGeometry x="330" y="580" width="70" height="50" as="geometry" />
        </mxCell>
        <mxCell id="PjvlIqHdNigLgI37IArB-207" style="edgeStyle=orthogonalEdgeStyle;rounded=0;orthogonalLoop=1;jettySize=auto;html=1;exitX=1;exitY=0.5;exitDx=0;exitDy=0;entryX=0;entryY=0.5;entryDx=0;entryDy=0;" edge="1" parent="1" source="PjvlIqHdNigLgI37IArB-208" target="PjvlIqHdNigLgI37IArB-203">
          <mxGeometry relative="1" as="geometry" />
        </mxCell>
        <mxCell id="PjvlIqHdNigLgI37IArB-208" value="Sequencer" style="rounded=0;whiteSpace=wrap;html=1;fillColor=#dae8fc;strokeColor=#6c8ebf;" vertex="1" parent="1">
          <mxGeometry x="230" y="520" width="70" height="50" as="geometry" />
        </mxCell>
        <mxCell id="PjvlIqHdNigLgI37IArB-209" value="Agent" style="text;html=1;align=center;verticalAlign=middle;resizable=0;points=[];autosize=1;strokeColor=none;fillColor=none;" vertex="1" parent="1">
          <mxGeometry x="214" y="493" width="50" height="30" as="geometry" />
        </mxCell>
        <mxCell id="PjvlIqHdNigLgI37IArB-210" value="Coverage" style="rounded=0;whiteSpace=wrap;html=1;fillColor=#f8cecc;strokeColor=#b85450;" vertex="1" parent="1">
          <mxGeometry x="230" y="580" width="70" height="50" as="geometry" />
        </mxCell>
        <mxCell id="PjvlIqHdNigLgI37IArB-211" value="" style="rounded=0;whiteSpace=wrap;html=1;fillColor=#ffe6cc;strokeColor=#d79b00;" vertex="1" parent="1">
          <mxGeometry x="230" y="510" width="190" height="140" as="geometry" />
        </mxCell>
        <mxCell id="PjvlIqHdNigLgI37IArB-212" value="Driver" style="rounded=0;whiteSpace=wrap;html=1;fillColor=#d5e8d4;strokeColor=#82b366;" vertex="1" parent="1">
          <mxGeometry x="340" y="530" width="70" height="50" as="geometry" />
        </mxCell>
        <mxCell id="PjvlIqHdNigLgI37IArB-213" style="edgeStyle=orthogonalEdgeStyle;rounded=0;orthogonalLoop=1;jettySize=auto;html=1;exitX=0;exitY=0.5;exitDx=0;exitDy=0;entryX=1;entryY=0.5;entryDx=0;entryDy=0;" edge="1" parent="1" source="PjvlIqHdNigLgI37IArB-215" target="PjvlIqHdNigLgI37IArB-219">
          <mxGeometry relative="1" as="geometry" />
        </mxCell>
        <mxCell id="PjvlIqHdNigLgI37IArB-214" style="edgeStyle=orthogonalEdgeStyle;rounded=0;orthogonalLoop=1;jettySize=auto;html=1;exitX=0;exitY=0.5;exitDx=0;exitDy=0;entryX=0.5;entryY=1;entryDx=0;entryDy=0;" edge="1" parent="1" source="PjvlIqHdNigLgI37IArB-215" target="PjvlIqHdNigLgI37IArB-211">
          <mxGeometry relative="1" as="geometry" />
        </mxCell>
        <mxCell id="PjvlIqHdNigLgI37IArB-215" value="Monitor" style="rounded=0;whiteSpace=wrap;html=1;fillColor=#e1d5e7;strokeColor=#9673a6;" vertex="1" parent="1">
          <mxGeometry x="340" y="590" width="70" height="50" as="geometry" />
        </mxCell>
        <mxCell id="PjvlIqHdNigLgI37IArB-216" style="edgeStyle=orthogonalEdgeStyle;rounded=0;orthogonalLoop=1;jettySize=auto;html=1;exitX=1;exitY=0.5;exitDx=0;exitDy=0;entryX=0;entryY=0.5;entryDx=0;entryDy=0;" edge="1" parent="1" source="PjvlIqHdNigLgI37IArB-217" target="PjvlIqHdNigLgI37IArB-212">
          <mxGeometry relative="1" as="geometry" />
        </mxCell>
        <mxCell id="PjvlIqHdNigLgI37IArB-217" value="Sequencer" style="rounded=0;whiteSpace=wrap;html=1;fillColor=#dae8fc;strokeColor=#6c8ebf;" vertex="1" parent="1">
          <mxGeometry x="240" y="530" width="70" height="50" as="geometry" />
        </mxCell>
        <mxCell id="PjvlIqHdNigLgI37IArB-218" value="Agent" style="text;html=1;align=center;verticalAlign=middle;resizable=0;points=[];autosize=1;strokeColor=none;fillColor=none;" vertex="1" parent="1">
          <mxGeometry x="224" y="503" width="50" height="30" as="geometry" />
        </mxCell>
        <mxCell id="PjvlIqHdNigLgI37IArB-219" value="Coverage" style="rounded=0;whiteSpace=wrap;html=1;fillColor=#f8cecc;strokeColor=#b85450;" vertex="1" parent="1">
          <mxGeometry x="240" y="590" width="70" height="50" as="geometry" />
        </mxCell>
        <mxCell id="PjvlIqHdNigLgI37IArB-220" style="edgeStyle=orthogonalEdgeStyle;rounded=0;orthogonalLoop=1;jettySize=auto;html=1;exitX=0.5;exitY=1;exitDx=0;exitDy=0;entryX=0.5;entryY=0;entryDx=0;entryDy=0;" edge="1" parent="1" source="PjvlIqHdNigLgI37IArB-222" target="PjvlIqHdNigLgI37IArB-233">
          <mxGeometry relative="1" as="geometry" />
        </mxCell>
        <mxCell id="PjvlIqHdNigLgI37IArB-221" style="edgeStyle=orthogonalEdgeStyle;rounded=0;orthogonalLoop=1;jettySize=auto;html=1;exitX=0.5;exitY=1;exitDx=0;exitDy=0;entryX=0.5;entryY=0;entryDx=0;entryDy=0;" edge="1" parent="1" source="PjvlIqHdNigLgI37IArB-222" target="PjvlIqHdNigLgI37IArB-232">
          <mxGeometry relative="1" as="geometry" />
        </mxCell>
        <mxCell id="PjvlIqHdNigLgI37IArB-222" value="" style="rounded=0;whiteSpace=wrap;html=1;fillColor=#ffe6cc;strokeColor=#d79b00;" vertex="1" parent="1">
          <mxGeometry x="239" y="520" width="190" height="140" as="geometry" />
        </mxCell>
        <mxCell id="PjvlIqHdNigLgI37IArB-247" style="edgeStyle=orthogonalEdgeStyle;rounded=0;orthogonalLoop=1;jettySize=auto;html=1;exitX=1;exitY=0.5;exitDx=0;exitDy=0;entryX=0;entryY=0.5;entryDx=0;entryDy=0;startArrow=classic;startFill=1;dashed=1;curved=1;" edge="1" parent="1" source="PjvlIqHdNigLgI37IArB-223" target="PjvlIqHdNigLgI37IArB-7">
          <mxGeometry relative="1" as="geometry" />
        </mxCell>
        <mxCell id="PjvlIqHdNigLgI37IArB-223" value="Driver" style="rounded=0;whiteSpace=wrap;html=1;fillColor=#d5e8d4;strokeColor=#82b366;" vertex="1" parent="1">
          <mxGeometry x="350" y="540" width="70" height="50" as="geometry" />
        </mxCell>
        <mxCell id="PjvlIqHdNigLgI37IArB-224" style="edgeStyle=orthogonalEdgeStyle;rounded=0;orthogonalLoop=1;jettySize=auto;html=1;exitX=0;exitY=0.5;exitDx=0;exitDy=0;entryX=1;entryY=0.5;entryDx=0;entryDy=0;" edge="1" parent="1" source="PjvlIqHdNigLgI37IArB-226" target="PjvlIqHdNigLgI37IArB-230">
          <mxGeometry relative="1" as="geometry" />
        </mxCell>
        <mxCell id="PjvlIqHdNigLgI37IArB-225" style="edgeStyle=orthogonalEdgeStyle;rounded=0;orthogonalLoop=1;jettySize=auto;html=1;exitX=0;exitY=0.5;exitDx=0;exitDy=0;entryX=0.5;entryY=1;entryDx=0;entryDy=0;" edge="1" parent="1" source="PjvlIqHdNigLgI37IArB-226" target="PjvlIqHdNigLgI37IArB-222">
          <mxGeometry relative="1" as="geometry" />
        </mxCell>
        <mxCell id="PjvlIqHdNigLgI37IArB-226" value="Monitor" style="rounded=0;whiteSpace=wrap;html=1;fillColor=#e1d5e7;strokeColor=#9673a6;" vertex="1" parent="1">
          <mxGeometry x="350" y="600" width="70" height="50" as="geometry" />
        </mxCell>
        <mxCell id="PjvlIqHdNigLgI37IArB-227" style="edgeStyle=orthogonalEdgeStyle;rounded=0;orthogonalLoop=1;jettySize=auto;html=1;exitX=1;exitY=0.5;exitDx=0;exitDy=0;entryX=0;entryY=0.5;entryDx=0;entryDy=0;" edge="1" parent="1" source="PjvlIqHdNigLgI37IArB-228" target="PjvlIqHdNigLgI37IArB-223">
          <mxGeometry relative="1" as="geometry" />
        </mxCell>
        <mxCell id="PjvlIqHdNigLgI37IArB-228" value="Sequencer" style="rounded=0;whiteSpace=wrap;html=1;fillColor=#dae8fc;strokeColor=#6c8ebf;" vertex="1" parent="1">
          <mxGeometry x="250" y="540" width="70" height="50" as="geometry" />
        </mxCell>
        <mxCell id="PjvlIqHdNigLgI37IArB-229" value="Agent" style="text;html=1;align=center;verticalAlign=middle;resizable=0;points=[];autosize=1;strokeColor=none;fillColor=none;" vertex="1" parent="1">
          <mxGeometry x="234" y="513" width="50" height="30" as="geometry" />
        </mxCell>
        <mxCell id="PjvlIqHdNigLgI37IArB-230" value="Coverage" style="rounded=0;whiteSpace=wrap;html=1;fillColor=#f8cecc;strokeColor=#b85450;" vertex="1" parent="1">
          <mxGeometry x="250" y="600" width="70" height="50" as="geometry" />
        </mxCell>
        <mxCell id="PjvlIqHdNigLgI37IArB-231" value="Environment" style="text;html=1;align=center;verticalAlign=middle;resizable=0;points=[];autosize=1;strokeColor=none;fillColor=none;" vertex="1" parent="1">
          <mxGeometry x="172" y="465" width="90" height="30" as="geometry" />
        </mxCell>
        <mxCell id="PjvlIqHdNigLgI37IArB-232" value="Coverage" style="rounded=0;whiteSpace=wrap;html=1;fillColor=#f8cecc;strokeColor=#b85450;" vertex="1" parent="1">
          <mxGeometry x="240" y="700" width="70" height="50" as="geometry" />
        </mxCell>
        <mxCell id="PjvlIqHdNigLgI37IArB-233" value="Scoreboard" style="rounded=0;whiteSpace=wrap;html=1;fillColor=#f8cecc;strokeColor=#b85450;" vertex="1" parent="1">
          <mxGeometry x="360" y="700" width="70" height="50" as="geometry" />
        </mxCell>
        <mxCell id="PjvlIqHdNigLgI37IArB-235" value="Top-level Environment" style="text;html=1;align=center;verticalAlign=middle;resizable=0;points=[];autosize=1;strokeColor=none;fillColor=none;" vertex="1" parent="1">
          <mxGeometry x="104" y="407" width="140" height="30" as="geometry" />
        </mxCell>
        <mxCell id="PjvlIqHdNigLgI37IArB-237" value="Test" style="text;html=1;align=center;verticalAlign=middle;resizable=0;points=[];autosize=1;strokeColor=none;fillColor=none;" vertex="1" parent="1">
          <mxGeometry x="-17" y="387" width="50" height="30" as="geometry" />
        </mxCell>
        <mxCell id="PjvlIqHdNigLgI37IArB-243" style="edgeStyle=orthogonalEdgeStyle;rounded=0;orthogonalLoop=1;jettySize=auto;html=1;exitX=1;exitY=0.5;exitDx=0;exitDy=0;exitPerimeter=0;curved=1;dashed=1;" edge="1" parent="1" source="PjvlIqHdNigLgI37IArB-238" target="PjvlIqHdNigLgI37IArB-228">
          <mxGeometry relative="1" as="geometry" />
        </mxCell>
        <mxCell id="PjvlIqHdNigLgI37IArB-238" value="Sequence" style="shape=cylinder3;whiteSpace=wrap;html=1;boundedLbl=1;backgroundOutline=1;size=15;fillColor=#bac8d3;strokeColor=#23445d;" vertex="1" parent="1">
          <mxGeometry x="20" y="483" width="60" height="80" as="geometry" />
        </mxCell>
        <mxCell id="PjvlIqHdNigLgI37IArB-246" value="Testbench" style="text;html=1;align=center;verticalAlign=middle;resizable=0;points=[];autosize=1;strokeColor=none;fillColor=none;" vertex="1" parent="1">
          <mxGeometry x="-38" y="365" width="80" height="30" as="geometry" />
        </mxCell>
        <mxCell id="PjvlIqHdNigLgI37IArB-248" value="interface" style="rounded=0;whiteSpace=wrap;html=1;fillColor=#b0e3e6;strokeColor=#0e8088;" vertex="1" parent="1">
          <mxGeometry x="550" y="496.5" width="58" height="37" as="geometry" />
        </mxCell>
        <mxCell id="PjvlIqHdNigLgI37IArB-250" style="edgeStyle=orthogonalEdgeStyle;rounded=0;orthogonalLoop=1;jettySize=auto;html=1;exitX=0;exitY=0.5;exitDx=0;exitDy=0;entryX=1;entryY=0.5;entryDx=0;entryDy=0;startArrow=classic;startFill=1;dashed=1;curved=1;" edge="1" parent="1" source="PjvlIqHdNigLgI37IArB-7" target="PjvlIqHdNigLgI37IArB-226">
          <mxGeometry relative="1" as="geometry" />
        </mxCell>
        <mxCell id="PjvlIqHdNigLgI37IArB-251" value="DUT" style="rounded=0;whiteSpace=wrap;html=1;fillColor=#f5f5f5;fontColor=#333333;strokeColor=#666666;" vertex="1" parent="1">
          <mxGeometry x="608" y="480" width="58" height="150" as="geometry" />
        </mxCell>
      </root>
    </mxGraphModel>
  </diagram>
</mxfile>
